<svg xmlns="http://www.w3.org/2000/svg" width="32" height="32" viewBox="0 0 24 24" fill="none" stroke="white" stroke-width="2" stroke-linecap="round" stroke-linejoin="round">
  <rect x="0" y="0" width="24" height="24" rx="6" fill="url(#grad1)"/>
  <defs>
    <linearGradient id="grad1" x1="0%" y1="0%" x2="100%" y2="100%">
      <stop offset="0%" style="stop-color:#00d1ff;stop-opacity:1" />
      <stop offset="100%" style="stop-color:#718093;stop-opacity:1" />
    </linearGradient>
  </defs>
  <path d="M14 18V6a2 2 0 0 0-2-2H4a2 2 0 0 0-2 2v11a1 1 0 0 0 1 1h2" stroke="white" fill="none"/>
  <path d="M15 18H9" stroke="white" fill="none"/>
  <path d="M19 18h2a1 1 0 0 0 1-1v-5l-4-4h-3v10" stroke="white" fill="none"/>
  <circle cx="7" cy="18" r="2" stroke="white" fill="none"/>
  <circle cx="17" cy="18" r="2" stroke="white" fill="none"/>
</svg>